<?xml version="1.0" encoding="UTF-8"?>
<svg width="100px" height="100px" viewBox="0 0 100 100" version="1.1" xmlns="http://www.w3.org/2000/svg" xmlns:xlink="http://www.w3.org/1999/xlink">
    <title>logo</title>
    <g stroke="none" stroke-width="1" fill="none" fill-rule="evenodd">
        <g fill="#44C20F">
            <path d="M20.0224888,79.9295352 C19.5267342,79.7436273 19.2323843,79.2943564 19.1394303,78.5817091 C19.0464763,77.8690619 19,77.2338858 19,76.6761619 C19,75.8705607 19.1239368,75.1114478 19.3718141,74.3988006 C19.6196914,73.6861534 19.8985492,72.9580247 20.2083958,72.2143928 C20.5182424,71.4707609 20.8125923,70.7271401 21.0914543,69.9835082 C21.3703162,69.2398763 21.5097451,68.4652714 21.5097451,67.6596702 L23.2758621,67.6596702 C23.2758621,65.9245291 23.2448779,64.4527797 23.1829085,63.2443778 C23.1209392,62.035976 23.2758602,60.626195 23.6476762,59.0149925 C24.2054001,59.4487778 24.5307342,59.6191909 24.6236882,59.5262369 C24.7166421,59.4332829 25.0729604,59.3868066 25.6926537,59.3868066 L25.6926537,59.0149925 C25.6926537,58.9530232 25.6151932,58.6896575 25.4602699,58.2248876 C25.3053466,57.7601176 25.2278861,57.4657677 25.2278861,57.3418291 C25.2278861,57.2178904 25.382807,56.7996038 25.6926537,56.0869565 C26.0025003,55.3743093 26.1574213,54.9560226 26.1574213,54.832084 L26.1574213,54.5532234 C26.1574213,54.4292847 26.1729134,54.3363321 26.2038981,54.2743628 C26.2348827,54.2123935 26.2503748,54.1194409 26.2503748,53.9955022 C26.2503748,53.8715636 26.2348827,53.7011505 26.2038981,53.4842579 C26.1729134,53.2673652 26.1574213,53.0969521 26.1574213,52.9730135 C26.1574213,52.9110442 26.1419292,52.6631706 26.1109445,52.2293853 C26.0799599,51.7956 26.0334836,51.3463292 25.9715142,50.8815592 C25.9095449,50.4167893 25.8475765,49.9830105 25.7856072,49.5802099 C25.7236379,49.1774093 25.6926537,48.9140436 25.6926537,48.7901049 L25.6926537,48.2323838 C25.6926537,48.1084452 25.7236379,47.767619 25.7856072,47.2098951 C25.8475765,46.6521711 25.9095449,46.0479793 25.9715142,45.3973013 C26.0334836,44.7466234 26.0799599,44.1579237 26.1109445,43.6311844 C26.1419292,43.1044451 26.1574213,42.7791111 26.1574213,42.6551724 C26.1574213,42.3453258 26.2348818,41.6636734 26.3898051,40.6101949 C26.5447284,39.5567164 26.7461257,38.4567773 26.994003,37.3103448 C27.2418803,36.1639123 27.4897539,35.1259417 27.7376312,34.1964018 C27.9855085,33.2668619 28.2643663,32.7711148 28.5742129,32.7091454 C28.8840595,33.1429307 29.0854568,33.6231858 29.1784108,34.149925 C29.2713648,34.6766643 29.3488253,35.1259352 29.4107946,35.4977511 L29.8755622,35.4977511 C29.8755622,34.4442726 29.7981017,33.3753178 29.6431784,32.2908546 C29.4882551,31.2063914 29.4107946,30.1374366 29.4107946,29.083958 C29.4107946,28.9600194 29.472763,28.6346853 29.5967016,28.107946 C29.7206403,27.5812068 29.8910534,27.0389833 30.107946,26.4812594 C30.3248387,25.9235354 30.5727122,25.4122962 30.8515742,24.9475262 C31.1304362,24.4827563 31.3938019,24.2503748 31.6416792,24.2503748 L31.8275862,24.2503748 L32.7571214,26.1094453 L32.7571214,24.9010495 C32.7571214,24.4052949 32.6641688,23.9250398 32.4782609,23.4602699 C32.2923529,22.9954999 32.1994003,22.5462291 32.1994003,22.1124438 C32.6331856,22.1124438 33.1909011,22.0349833 33.8725637,21.88006 C34.5542263,21.7251367 34.9570209,21.3998026 35.0809595,20.904048 C35.0189902,20.71814 34.8795613,20.5942032 34.6626687,20.5322339 C34.445776,20.4702646 34.1824103,20.4392804 33.8725637,20.4392804 C33.5627171,20.4392804 33.1909067,20.4702646 32.7571214,20.5322339 C32.6951521,20.3463259 32.7106442,20.0829602 32.8035982,19.7421289 C32.8965522,19.4012976 33.0049969,19.1999004 33.1289355,19.137931 C33.2528742,19.0139924 33.531732,18.9985003 33.9655172,19.0914543 C34.3993025,19.1844083 34.6471761,19.1999004 34.7091454,19.137931 L35.0809595,17.6506747 C35.2048982,17.5887053 35.5457243,17.5887053 36.1034483,17.6506747 C36.6611722,17.712644 37.0019984,17.712644 37.125937,17.6506747 C37.1879064,17.6506747 37.3428273,17.5887063 37.5907046,17.4647676 C37.7146433,17.4027983 37.8075959,17.3098457 37.8695652,17.185907 C37.9315345,17.1239377 37.9935029,17.0929535 38.0554723,17.0929535 C38.0554723,17.8365854 38.1949012,18.5337299 38.4737631,19.1844078 C38.7526251,19.8350857 39.0624671,20.4857539 39.4032984,21.1364318 C39.7441296,21.7871097 40.0539716,22.4377779 40.3328336,23.0884558 C40.6116955,23.7391337 40.7511244,24.4362781 40.7511244,25.17991 C40.7511244,25.8615726 40.689156,26.4967487 40.5652174,27.0854573 C40.4412787,27.6741659 40.3793103,28.3093419 40.3793103,28.9910045 C40.3793103,29.6726671 40.6271839,30.3698115 41.1229385,31.0824588 C41.6186931,31.795106 42.1454245,32.3373295 42.7031484,32.7091454 C42.7031484,33.0189921 42.6721642,33.5457234 42.6101949,34.2893553 C42.5482256,35.0329872 42.5327335,35.8075922 42.5637181,36.6131934 C42.5947028,37.4187946 42.7186396,38.1624154 42.9355322,38.844078 C43.1524249,39.5257405 43.5397273,39.9905035 44.0974513,40.2383808 C44.0354819,41.2918593 44.050974,42.6706561 44.143928,44.3748126 C44.236882,46.078969 44.4072951,47.8450683 44.6551724,49.6731634 C44.9030497,51.5012585 45.1973996,53.2518657 45.5382309,54.9250375 C45.8790622,56.5982093 46.2973488,57.961514 46.7931034,59.0149925 C46.8550728,59.0149925 46.9015491,59.0304846 46.9325337,59.0614693 C46.9635184,59.0924539 47.0099947,59.107946 47.071964,59.107946 C47.5677186,59.107946 48.0479737,58.7826119 48.5127436,58.131934 C48.9775136,57.4812561 49.4112923,56.7376354 49.814093,55.9010495 C50.2168936,55.0644636 50.5732118,54.2278902 50.8830585,53.3913043 C51.1929051,52.5547185 51.4717629,51.9195424 51.7196402,51.4857571 C51.7196402,51.4237878 51.8125928,51.2688668 51.9985007,51.0209895 C52.1844087,50.7731122 52.3703139,50.4942544 52.5562219,50.1844078 C52.7421299,49.8745612 52.9280351,49.5957034 53.113943,49.3478261 C53.299851,49.0999488 53.4237878,48.9140436 53.4857571,48.7901049 C53.5477264,48.418289 53.640679,47.7056524 53.7646177,46.6521739 C53.8885563,45.5986954 54.0899536,44.4987564 54.3688156,43.3523238 C54.6476776,42.2058913 55.0504721,41.1834128 55.5772114,40.2848576 C56.1039507,39.3863024 56.8010951,38.9370315 57.6686657,38.9370315 C57.6686657,38.9990008 57.6531736,39.1229376 57.6221889,39.3088456 C57.5912042,39.4947536 57.5757121,39.6186903 57.5757121,39.6806597 C57.5757121,39.8045983 57.5137437,40.0214877 57.3898051,40.3313343 C57.2658664,40.641181 57.1729139,40.8580703 57.1109445,40.982009 L58.5982009,41.5397301 L58.8770615,41.5397301 C59.1249388,41.5397301 59.2953519,41.6326827 59.3883058,41.8185907 C59.4812598,42.0044987 59.5277361,42.2213881 59.5277361,42.4692654 C59.5277361,42.7171427 59.5587203,42.9340321 59.6206897,43.11994 C59.682659,43.305848 59.8685642,43.3988006 60.1784108,43.3988006 C60.6741654,43.3988006 61.0304837,43.5537216 61.2473763,43.8635682 C61.464269,44.1734148 61.8825556,44.3283358 62.5022489,44.3283358 L62.5022489,39.3088456 C62.1924022,39.0609683 61.8980524,38.6581737 61.6191904,38.1004498 C61.3403284,37.5427258 61.0924549,36.9695182 60.8755622,36.3808096 C60.6586696,35.792101 60.4572723,35.2653696 60.2713643,34.8005997 C60.0854563,34.3358298 59.9305354,34.1034483 59.8065967,34.1034483 L59.7136432,34.1964018 C59.5897045,34.2583711 59.2798625,34.4442763 58.7841079,34.7541229 C58.2883533,35.0639696 57.9785114,35.2188906 57.8545727,35.2188906 C57.4827568,35.2188906 57.203899,35.0329854 57.017991,34.6611694 C56.832083,34.2893535 56.7391304,33.9485273 56.7391304,33.6386807 C56.7391304,33.2048954 56.8475751,32.988006 57.0644678,32.988006 C57.2813604,32.988006 57.5137419,32.9570218 57.7616192,32.8950525 C58.0094965,32.8330831 58.241878,32.6781622 58.4587706,32.4302849 C58.6756633,32.1824076 58.7841079,31.624692 58.7841079,30.7571214 L59.3418291,30.7571214 L59.3418291,32.4302849 C59.7756144,32.4302849 60.1009484,32.445777 60.3178411,32.4767616 C60.5347337,32.5077463 60.6431784,32.1204438 60.6431784,31.3148426 L60.6431784,30.7571214 C60.6431784,30.6951521 60.6121942,30.4317864 60.5502249,29.9670165 C60.4882556,29.5022466 60.4262872,29.0064994 60.3643178,28.4797601 C60.3023485,27.9530209 60.2403801,27.4572737 60.1784108,26.9925037 C60.1164415,26.5277338 60.0854573,26.2333839 60.0854573,26.1094453 L60.0854573,25.17991 L60.3643178,23.7856072 C60.4882565,23.1659139 60.5812091,22.8250878 60.6431784,22.7631184 C60.6431784,22.7011491 60.7516231,22.5617202 60.9685157,22.3448276 C61.1854084,22.1279349 61.433282,21.8955535 61.7121439,21.6476762 C61.9910059,21.3997989 62.2388795,21.1674174 62.4557721,20.9505247 L62.874063,20.5322339 C62.9360323,20.4702646 63.0599691,20.2533752 63.2458771,19.8815592 L63.850075,18.6731634 C64.0669676,18.2393781 64.3148412,17.8520757 64.5937031,17.5112444 C64.8725651,17.1704131 65.166915,17 65.4767616,17 C65.7246389,17 65.8485757,17.0619684 65.8485757,17.185907 L66.7781109,21.1829085 L67.5217391,22.2983508 C67.8315858,21.8025962 68.1259356,21.2293886 68.4047976,20.5787106 C68.6836596,19.9280327 68.8850569,19.4477777 69.0089955,19.137931 C69.0709648,19.137931 69.1174411,19.1224389 69.1484258,19.0914543 C69.1794104,19.0604696 69.2258867,19.0449775 69.2878561,19.0449775 C69.3498254,19.0449775 69.597699,19.1534222 70.0314843,19.3703148 L71.4257871,20.0674663 C71.9215417,20.3153436 72.3708126,20.5632172 72.7736132,20.8110945 L73.3778111,21.1829085 C73.4397804,21.5547245 73.5792093,22.0659638 73.7961019,22.7166417 C74.0129946,23.3673196 74.229884,24.064464 74.4467766,24.808096 C74.6636693,25.5517279 74.8495744,26.2798565 75.0044978,26.9925037 C75.1594211,27.705151 75.2368816,28.2783587 75.2368816,28.7121439 C75.2368816,28.9600212 74.9115475,29.1614185 74.2608696,29.3163418 C73.6101916,29.4712651 73.1299366,29.6726624 72.82009,29.9205397 L71.9835082,30.7571214 C72.0454776,30.3233362 72.0144934,29.8430811 71.8905547,29.3163418 C71.7666161,28.7896026 71.6426793,28.3713159 71.5187406,28.0614693 C71.394802,28.1234386 71.1469284,28.3248359 70.7751124,28.6656672 C70.4032965,29.0064985 70.1554229,29.2388799 70.0314843,29.3628186 C69.9075456,29.4247879 69.7681167,29.3938037 69.6131934,29.2698651 C69.4582701,29.1459264 69.3188412,29.083958 69.1949025,29.083958 C69.1949025,29.269866 69.1639184,29.7036448 69.101949,30.3853073 C69.0399797,31.0669699 69.0089955,31.5317329 69.0089955,31.7796102 C69.0089955,31.9035488 69.0709639,32.0119935 69.1949025,32.1049475 C69.3188412,32.1979015 69.442778,32.2443778 69.5667166,32.2443778 C70.8061031,32.1824085 71.8905501,31.9655191 72.82009,31.5937031 C73.7496298,31.2218872 74.7721084,31.035982 75.8875562,31.035982 C75.8875562,31.407798 75.8100957,31.7951004 75.6551724,32.197901 C75.5002491,32.6007017 75.174915,32.7711148 74.6791604,32.7091454 C74.989007,33.576716 75.1594201,34.3048446 75.1904048,34.8935532 C75.2213895,35.4822618 75.2368816,36.1484221 75.2368816,36.892054 L75.2368816,38.7511244 C75.1129429,38.8130938 74.9580219,38.9835069 74.7721139,39.2623688 C74.586206,39.5412308 74.431285,39.7426281 74.3073463,39.8665667 L74.3073463,40.2383808 C74.431285,40.3623195 74.586206,40.5637167 74.7721139,40.8425787 C74.9580219,41.1214407 75.1129429,41.2918538 75.2368816,41.3538231 C75.1129429,41.725639 75.0354824,42.2368783 75.0044978,42.8875562 C74.9735131,43.5382341 75.0354815,44.1889023 75.1904048,44.8395802 C75.3453281,45.4902581 75.6086938,46.0634658 75.9805097,46.5592204 C76.3523257,47.054975 76.8790571,47.3338328 77.5607196,47.3958021 C77.064965,47.3958021 76.7861073,47.4422784 76.7241379,47.5352324 C76.6621686,47.6281864 76.6311844,47.8295837 76.6311844,48.1394303 C76.6311844,48.7591235 76.6931528,49.2393786 76.8170915,49.5802099 C76.9410301,49.9210412 77.0959511,50.2308832 77.2818591,50.5097451 C77.467767,50.7886071 77.6691643,51.082957 77.886057,51.3928036 C78.1029496,51.7026502 78.3043469,52.1054448 78.4902549,52.6011994 C78.4902549,52.6631687 78.4127944,52.7871055 78.2578711,52.9730135 C78.1029478,53.1589215 78.0254873,53.2828583 78.0254873,53.3448276 L78.0254873,56.7841079 L77.095952,57.3418291 C77.095952,57.4037984 77.0804599,57.5277352 77.0494753,57.7136432 C77.0184906,57.8995512 77.0029985,58.0544721 77.0029985,58.1784108 C77.0029985,58.984012 77.1579195,59.758617 77.4677661,60.5022489 C77.7776127,61.2458808 78.133931,61.9740094 78.5367316,62.6866567 C78.9395322,63.3993039 79.2958505,64.1274326 79.6056972,64.8710645 C79.9155438,65.6146964 80.0704648,66.3893013 80.0704648,67.1949025 C80.0704648,67.7526265 79.8690675,68.1244369 79.4662669,68.3103448 C79.0634663,68.4962528 78.862069,68.837079 78.862069,69.3328336 C78.862069,69.5807109 78.9705137,69.7666161 79.1874063,69.8905547 C79.4042989,70.0144934 79.6521725,70.1229381 79.9310345,70.2158921 C80.2098964,70.308846 80.45777,70.4327828 80.6746627,70.5877061 C80.8915553,70.7426295 81,70.9440267 81,71.191904 C81,71.5017507 80.8140948,71.7496243 80.4422789,71.9355322 L79.5127436,72.4002999 C79.5127436,72.5242385 79.574712,72.8960489 79.6986507,73.5157421 C79.8225893,74.1354354 79.9155419,74.53823 79.9775112,74.7241379 C80.0394806,74.8480766 80.2253858,75.1579186 80.5352324,75.6536732 C80.845079,76.1494278 81,76.4592697 81,76.5832084 C81,76.7691164 80.8605711,77.0014979 80.5817091,77.2803598 C80.3028472,77.5592218 80.1014499,77.6366823 79.9775112,77.5127436 L76.6311844,76.1184408 L76.4452774,76.3043478 C76.2593694,76.4902558 76.1354326,76.5832084 76.0734633,76.5832084 C76.0114939,76.6451777 75.9185413,76.8000987 75.7946027,77.047976 C75.670664,77.2958533 75.6086957,77.4507743 75.6086957,77.5127436 L70.9610195,78.5352324 C70.8370808,78.5352324 70.6821599,78.2098983 70.4962519,77.5592204 C70.3103439,76.9085425 70.0005019,76.4282874 69.5667166,76.1184408 C69.070962,75.7466248 68.7766122,75.4987512 68.6836582,75.3748126 C68.5907042,75.2508739 68.5442279,74.941032 68.5442279,74.4452774 C68.5442279,73.9495228 68.7301331,73.6086966 69.101949,73.4227886 C69.473765,73.2368806 69.6596702,72.8960545 69.6596702,72.4002999 C69.6596702,71.8425759 69.3808124,71.4397813 68.8230885,71.191904 C68.2653645,70.9440267 67.9865067,70.5722164 67.9865067,70.0764618 C67.9865067,69.7046458 68.0794593,69.3483275 68.2653673,69.0074963 C68.4512753,68.666665 68.5442279,68.2483783 68.5442279,67.7526237 C68.5442279,67.1948998 68.3583227,66.8230894 67.9865067,66.6371814 C67.6146908,66.4512734 67.3668172,66.1104473 67.2428786,65.6146927 C66.3133387,63.5077356 65.7246389,61.1529366 65.4767616,58.5502249 C65.2288843,55.9475132 65.1979001,53.4377932 65.3838081,51.0209895 C65.0739615,50.8970509 64.7796116,50.602701 64.5007496,50.137931 C64.2218877,49.6731611 63.9740141,49.1774139 63.7571214,48.6506747 C63.5402288,48.1239354 63.3543236,47.6126961 63.1994003,47.1169415 C63.044477,46.6211869 62.9360323,46.2183924 62.874063,45.9085457 C62.688155,46.2183924 62.3008525,46.5282343 61.7121439,46.838081 C61.1234353,47.1479276 60.7671171,47.3338328 60.6431784,47.3958021 L60.6431784,47.5817091 C60.6431784,47.9535251 60.736131,48.3098434 60.922039,48.6506747 C61.107947,48.991506 61.4487731,49.1929032 61.9445277,49.2548726 L61.3868066,49.7196402 C61.3868066,49.8435788 61.3248382,50.0759603 61.2008996,50.4167916 C61.0769609,50.7576229 61.0149925,50.9590202 61.0149925,51.0209895 C60.9530232,51.1449282 60.7361338,51.2223887 60.3643178,51.2533733 C59.9925019,51.284358 59.7756125,51.3618185 59.7136432,51.4857571 C59.5897045,51.6716651 59.5277361,51.9969992 59.5277361,52.4617691 C59.5277361,52.9265391 59.5897045,53.2208889 59.7136432,53.3448276 L56.832084,53.9025487 C56.7081453,53.9025487 56.4757638,53.8870566 56.1349325,53.856072 C55.7941012,53.8250873 55.5617198,53.8095952 55.4377811,53.8095952 C55.4377811,54.3673191 55.5462258,54.7236374 55.7631184,54.8785607 C55.9800111,55.033484 56.1969005,55.1574208 56.4137931,55.2503748 C56.6306857,55.3433288 56.8475751,55.4517735 57.0644678,55.5757121 C57.2813604,55.6996508 57.3898051,55.9475244 57.3898051,56.3193403 C57.3898051,56.7531256 57.2813604,57.2178886 57.0644678,57.7136432 C56.8475751,58.2093978 56.5997015,58.6896528 56.3208396,59.1544228 C56.0419776,59.6191927 55.794104,60.0684636 55.5772114,60.5022489 C55.3603188,60.9360342 55.2518741,61.2768603 55.2518741,61.5247376 C55.2518741,61.9585229 55.4222872,62.2993491 55.7631184,62.5472264 C56.1039497,62.7951037 56.2743628,63.1978983 56.2743628,63.7556222 C56.2743628,64.0654688 56.1969023,64.4992476 56.041979,65.0569715 C55.8870557,65.6146954 55.7011505,66.1879031 55.4842579,66.7766117 C55.2673652,67.3653203 55.0659679,67.9230358 54.88006,68.4497751 C54.694152,68.9765144 54.5702152,69.3638169 54.5082459,69.6116942 C53.6406753,69.3018475 52.9125467,69.3638159 52.3238381,69.7976012 C51.7351295,70.2313865 51.2393823,70.8200862 50.8365817,71.5637181 C50.4337811,72.30735 50.1239391,73.1129392 49.9070465,73.9805097 C49.6901538,74.8480803 49.5197407,75.5607169 49.3958021,76.1184408 C49.3338328,75.9945021 49.1789118,75.824089 48.9310345,75.6071964 C48.6831572,75.3903038 48.497252,75.2508749 48.3733133,75.1889055 L48.2803598,75.1889055 C48.2183905,75.1889055 48.1874063,75.1734134 48.1874063,75.1424288 C48.1874063,75.1114441 48.1564221,75.095952 48.0944528,75.095952 C47.7846061,75.095952 47.5212405,75.1734125 47.3043478,75.3283358 C47.0874552,75.4832591 46.8860579,75.6536722 46.7001499,75.8395802 C46.5142419,76.0254882 46.3283368,76.1959013 46.1424288,76.3508246 C45.9565208,76.5057479 45.7086472,76.5832084 45.3988006,76.5832084 C45.0269846,76.5832084 44.8720637,76.5367321 44.934033,76.4437781 C44.9960023,76.3508241 44.8720655,76.0564742 44.5622189,75.5607196 C44.4382802,75.436781 44.1439304,75.1114469 43.6791604,74.5847076 C43.2143905,74.0579684 42.8890564,73.7326343 42.7031484,73.6086957 L42.4242879,73.6086957 C41.9905026,73.6086957 41.3243423,73.7946008 40.4257871,74.1664168 C39.5272319,74.5382327 38.8610716,74.8790589 38.4272864,75.1889055 C38.3033477,74.9410282 38.2413793,74.6931547 38.2413793,74.4452774 C38.2413793,74.1354307 38.3188398,73.9340334 38.4737631,73.8410795 C38.6286864,73.7481255 38.8145916,73.670665 39.0314843,73.6086957 C39.2483769,73.5467263 39.4342821,73.50025 39.5892054,73.4692654 C39.7441287,73.4382807 39.8215892,73.2988518 39.8215892,73.0509745 L39.8215892,72.7721139 C39.6356812,72.3383287 39.5272365,71.9045499 39.4962519,71.4707646 C39.4652672,71.0369793 39.3878067,70.6032006 39.2638681,70.1694153 C39.0779601,69.6736607 38.7991023,69.1624214 38.4272864,68.6356822 C38.0554704,68.1089429 37.7766126,67.5977036 37.5907046,67.101949 C37.5287353,66.9780104 37.5907037,66.761121 37.7766117,66.4512744 C37.9625197,66.1414277 38.1484249,65.8470779 38.3343328,65.5682159 C38.5202408,65.2893539 38.6751618,65.0414803 38.7991004,64.8245877 C38.9230391,64.6076951 38.9230391,64.4992504 38.7991004,64.4992504 L36.1034483,64.3133433 C35.7936016,64.0034967 35.375315,63.8330836 34.8485757,63.802099 C34.3218364,63.7711143 34.0584708,63.5077486 34.0584708,63.011994 C34.0584708,62.7641167 34.244376,62.5627194 34.6161919,62.4077961 C34.9880079,62.2528728 35.3908024,62.0979518 35.8245877,61.9430285 C36.258373,61.7881052 36.6611676,61.6331842 37.0329835,61.4782609 C37.4047995,61.3233376 37.5907046,61.1219403 37.5907046,60.874063 C37.5907046,60.5642163 37.3893074,60.3163428 36.9865067,60.1304348 C36.5837061,59.9445268 36.1034511,59.7586216 35.5457271,59.5727136 C34.8640646,59.3248363 34.2133964,59.0614707 33.5937031,58.7826087 C32.9740099,58.5037467 32.6641679,58.1474285 32.6641679,57.7136432 C32.9740145,57.7136432 33.2838565,57.7756116 33.5937031,57.8995502 C33.9035498,58.0234889 34.244376,58.0854573 34.6161919,58.0854573 C34.6161919,57.2178867 34.6626682,56.5052502 34.7556222,55.9475262 C34.8485762,55.3898023 34.5542263,54.7391342 33.8725637,53.9955022 L36.4752624,53.8095952 L36.1034483,53.6236882 C35.855571,53.4997495 35.5767132,53.3913048 35.2668666,53.2983508 C34.9570199,53.2053968 34.6626701,53.0969521 34.3838081,52.9730135 L33.9655172,52.7871064 L32.4782609,52.9730135 L32.2923538,52.9730135 L31.8275862,54.3673163 C31.7656169,54.677163 31.6881564,55.157418 31.5952024,55.808096 C31.5022484,56.4587739 31.4092958,57.1714104 31.3163418,57.946027 C31.2233878,58.7206436 31.1304352,59.4487722 31.0374813,60.1304348 C30.9445273,60.8120974 30.898051,61.2768603 30.898051,61.5247376 C30.712143,61.8965536 30.4797615,62.1289351 30.2008996,62.2218891 C29.9220376,62.314843 29.6586719,62.4077956 29.4107946,62.5007496 C29.1629173,62.5937036 28.9460279,62.7176404 28.7601199,62.8725637 C28.574212,63.027487 28.4812594,63.3838053 28.4812594,63.9415292 C28.4812594,64.6231918 28.7446251,65.0259864 29.2713643,65.149925 C29.7981036,65.2738637 30.0614693,65.4907531 30.0614693,65.8005997 C30.0614693,66.1104463 29.9840088,66.3583199 29.8290855,66.5442279 C29.6741621,66.7301359 29.488257,66.916041 29.2713643,67.101949 C29.0544717,67.287857 28.8685665,67.4737622 28.7136432,67.6596702 C28.5587199,67.8455781 28.4812594,68.1244359 28.4812594,68.4962519 C28.4812594,69.0539758 28.5897041,69.4102941 28.8065967,69.5652174 C29.0234893,69.7201407 29.131934,69.9525222 29.131934,70.2623688 C29.131934,70.8200927 28.9460288,71.5017451 28.5742129,72.3073463 C28.2023969,73.1129476 27.8150945,73.9185367 27.4122939,74.7241379 C27.0094932,75.5297392 26.6221908,76.3198362 26.2503748,77.0944528 C25.8785589,77.8690693 25.6926537,78.5352296 25.6926537,79.0929535 C25.6926537,79.6506775 26.0024957,80.053472 26.6221889,80.3013493 C26.250373,80.4872573 26.0179915,80.7661151 25.9250375,81.137931 C25.8320835,81.509747 25.7701151,81.8815574 25.7391304,82.2533733 C25.7081458,82.6251893 25.6461774,82.9660154 25.5532234,83.2758621 C25.4602694,83.5857087 25.2588721,83.7406297 24.9490255,83.7406297 L24.7631184,83.7406297 C24.7011491,83.7406297 24.6701649,83.7096455 24.6701649,83.6476762 C24.1744103,83.2138909 23.7251394,82.8575726 23.3223388,82.5787106 C22.9195382,82.2998487 22.5632199,82.0209909 22.2533733,81.7421289 C21.9435267,81.463267 21.680161,81.1224408 21.4632684,80.7196402 C21.2463757,80.3168396 21.1069468,79.7746161 21.0449775,79.0929535 L20.0224888,79.9295352 Z M42.7031484,71.4707646 L43.2608696,71.4707646 L43.2608696,70.9130435 L42.7031484,70.9130435 L42.7031484,71.4707646 Z M40.7511244,66.0794603 C40.4412778,66.3893069 40.0849595,66.714641 39.6821589,67.0554723 C39.2793583,67.3963036 39.077961,67.8145902 39.077961,68.3103448 C40.5652248,69.5497313 41.5102429,70.0764627 41.9130435,69.8905547 C42.3158441,69.7046467 41.9285416,68.6201998 40.7511244,66.6371814 L40.7511244,66.0794603 Z M53.0209895,68.0314843 L53.4857571,68.0314843 L53.4857571,67.6596702 L53.0209895,68.0314843 Z M54.9730135,65.2428786 C54.8490748,65.2428786 54.7871064,65.304847 54.7871064,65.4287856 C54.7871064,65.5527243 54.8490748,65.6146927 54.9730135,65.6146927 C55.2208908,65.3668154 55.2208908,65.2428786 54.9730135,65.2428786 Z M77.7466267,65.4287856 C77.8705653,65.5527243 77.9635179,65.6146927 78.0254873,65.6146927 L78.4902549,65.6146927 C78.4902549,65.3668154 78.3353339,65.2428786 78.0254873,65.2428786 L77.5607196,65.2428786 L77.7466267,65.4287856 Z M51.7196402,63.5697151 C52.2773641,63.5697151 52.5562219,63.2598732 52.5562219,62.6401799 L52.4632684,62.3613193 C52.401299,62.3613193 52.3548227,62.2993509 52.3238381,62.1754123 C52.2928534,62.0514736 52.2463771,61.9895052 52.1844078,61.9895052 L51.7196402,61.9895052 L51.7196402,63.5697151 Z M35.6386807,62.9190405 L35.6386807,62.3613193 L35.0809595,62.3613193 L35.6386807,62.9190405 Z M35.6386807,56.3193403 C35.514742,56.3193403 35.6851551,56.582706 36.149925,57.1094453 C36.614695,57.6361845 37.1569184,58.2248843 37.7766117,58.8755622 C38.3963049,59.5262401 39.0159889,60.1149399 39.6356822,60.6416792 C40.2553754,61.1684184 40.6271858,61.4317841 40.7511244,61.4317841 C41.1849097,61.4317841 41.2933544,61.1684184 41.0764618,60.6416792 C40.8595691,60.1149399 40.4567746,59.5262401 39.868066,58.8755622 C39.2793574,58.2248843 38.597705,57.6361845 37.8230885,57.1094453 C37.0484719,56.582706 36.3203432,56.3193403 35.6386807,56.3193403 Z M50.6971514,55.9475262 C50.3873048,55.9475262 50.2323838,56.0869551 50.2323838,56.3658171 C50.2323838,56.6446791 50.3873048,56.7841079 50.6971514,56.7841079 C51.0069981,56.7841079 51.161919,56.6446791 51.161919,56.3658171 C51.161919,56.0869551 51.0069981,55.9475262 50.6971514,55.9475262 Z M75.6086957,54.832084 C75.6086957,55.3278386 75.7946008,55.6686647 76.1664168,55.8545727 C76.5382327,56.0404807 76.8790589,56.1334333 77.1889055,56.1334333 C77.1889055,55.2658627 76.8170952,54.832084 76.0734633,54.832084 L75.6086957,54.832084 Z M39.2638681,54.5532234 C39.5737147,54.5532234 39.8215883,54.4137945 40.0074963,54.1349325 C40.1934042,53.8560706 40.317341,53.5927049 40.3793103,53.3448276 L39.2638681,53.3448276 L39.2638681,54.5532234 Z M67.2428786,54.3673163 L68.1724138,54.3673163 C68.1724138,54.0574697 68.1259375,53.7476277 68.0329835,53.4377811 C67.9400295,53.1279345 67.707648,52.9730135 67.3358321,52.9730135 L67.2428786,52.9730135 L67.2428786,54.3673163 Z M41.7736132,52.6011994 C41.7736132,52.8490767 41.9285342,52.9730135 42.2383808,52.9730135 L42.2383808,52.6011994 L41.7736132,52.0434783 C41.7736132,52.1054476 41.7581211,52.1519239 41.7271364,52.1829085 C41.6961518,52.2138932 41.6806597,52.2603695 41.6806597,52.3223388 L41.7736132,52.6011994 Z M31.2698651,51.4857571 C31.2698651,51.6096958 31.3318335,51.8110931 31.4557721,52.089955 C31.5797108,52.368817 31.7036476,52.5392301 31.8275862,52.6011994 L34.802099,52.1364318 L32.5712144,49.2548726 C32.5092451,49.2548726 32.4162925,49.3633173 32.2923538,49.5802099 C32.1684152,49.7971025 32.0289863,50.029484 31.874063,50.2773613 C31.7191397,50.5252386 31.5797108,50.7731122 31.4557721,51.0209895 C31.3318335,51.2688668 31.2698651,51.4237878 31.2698651,51.4857571 Z M52.4632684,52.0434783 L53.0209895,51.4857571 L53.0209895,51.0209895 L52.4632684,52.0434783 Z M56.832084,51.4857571 C56.5222373,51.4857571 56.3673163,51.6716623 56.3673163,52.0434783 C56.3673163,52.4152942 56.5222373,52.6011994 56.832084,52.6011994 C57.1419306,52.6011994 57.2968516,52.4152942 57.2968516,52.0434783 C57.2968516,51.6716623 57.1419306,51.4857571 56.832084,51.4857571 Z M57.8545727,52.0434783 L58.2263868,51.4857571 L57.8545727,51.4857571 L57.8545727,52.0434783 Z M68.0794603,51.0209895 C67.8935523,50.9590202 67.8005997,51.0364807 67.8005997,51.2533733 C67.8005997,51.470266 67.8935523,51.5477264 68.0794603,51.4857571 C68.2033989,51.4237878 68.2653673,51.3463273 68.2653673,51.2533733 C68.2653673,51.1604193 68.2033989,51.0829588 68.0794603,51.0209895 Z M42.2383808,47.7676162 C41.8665649,48.0154935 41.6806597,48.3873039 41.6806597,48.8830585 C42.1144449,48.8830585 42.4552711,48.6661691 42.7031484,48.2323838 L42.2383808,47.7676162 Z M58.2263868,48.7901049 L59.3418291,48.7901049 L58.7841079,48.2323838 L58.2263868,48.7901049 Z M32.1994003,46.6521739 C32.1994003,46.7761126 32.2923529,47.008494 32.4782609,47.3493253 C32.6641688,47.6901566 32.8810582,48.0464749 33.1289355,48.4182909 C33.3768128,48.7901068 33.6401785,49.1154409 33.9190405,49.3943028 C34.1979024,49.6731648 34.3992997,49.8435779 34.5232384,49.9055472 L33.5937031,43.8635682 C33.4697645,43.9255375 33.3148435,44.0804585 33.1289355,44.3283358 C32.9430276,44.5762131 32.7881066,44.8550709 32.6641679,45.1649175 C32.5402293,45.4747642 32.4317846,45.7846061 32.3388306,46.0944528 C32.2458766,46.4042994 32.1994003,46.5902046 32.1994003,46.6521739 Z M75.2368816,47.3958021 C74.9270349,47.3958021 74.7721139,47.535231 74.7721139,47.814093 C74.7721139,48.0929549 74.9270349,48.2323838 75.2368816,48.2323838 C75.4227895,48.2323838 75.5157421,48.0929549 75.5157421,47.814093 C75.5157421,47.535231 75.4227895,47.3958021 75.2368816,47.3958021 Z M59.2488756,43.9565217 C59.2488756,44.0184911 59.2643677,44.1114437 59.2953523,44.2353823 C59.326337,44.359321 59.3418291,44.4522736 59.3418291,44.5142429 C59.4037984,44.6381815 59.4812589,44.8860551 59.5742129,45.2578711 C59.6671669,45.629687 59.7136432,45.8465764 59.7136432,45.9085457 L59.8065967,46.0014993 C60.3023513,46.0014993 60.5812091,45.7381336 60.6431784,45.2113943 C60.7051477,44.684655 60.7361319,44.2663684 60.7361319,43.9565217 L59.2488756,43.9565217 Z M42.7031484,44.5142429 L42.7031484,43.9565217 L42.2383808,43.9565217 L42.7031484,44.5142429 Z M32.7571214,43.9565217 L32.7571214,43.3988006 L32.2923538,43.3988006 L32.7571214,43.9565217 Z M32.2923538,41.7256372 L32.7571214,41.7256372 L32.7571214,41.3538231 L32.2923538,41.3538231 L32.2923538,41.7256372 Z M72.82009,38.3793103 C72.5722127,38.3793103 72.4482759,38.5342313 72.4482759,38.844078 C72.4482759,39.1539246 72.5722127,39.3088456 72.82009,39.3088456 C73.1299366,39.3088456 73.2848576,39.1539246 73.2848576,38.844078 C73.2848576,38.5342313 73.1299366,38.3793103 72.82009,38.3793103 Z M70.0314843,37.9145427 L70.0314843,36.892054 L69.5667166,37.3568216 L70.0314843,37.9145427 Z M71.5187406,35.4977511 C71.3328327,35.4357818 71.2398801,35.6681633 71.2398801,36.1949025 C71.2398801,36.7216418 71.3328327,36.9540233 71.5187406,36.892054 C71.6426793,36.7681153 71.7046477,36.5357338 71.7046477,36.1949025 C71.7046477,35.8540713 71.6426793,35.6216898 71.5187406,35.4977511 Z M71.3328336,33.7316342 C71.3328336,34.0414808 71.4567704,34.2738623 71.7046477,34.4287856 C71.952525,34.5837089 72.1694144,34.6611694 72.3553223,34.6611694 L72.3553223,33.7316342 L71.3328336,33.7316342 Z M39.2638681,32.4302849 C39.2638681,32.7401315 39.3568207,33.0499735 39.5427286,33.3598201 C39.7286366,33.6696667 40.0074944,33.8245877 40.3793103,33.8245877 L40.3793103,31.6866567 C40.0694637,31.6866567 39.806098,31.7486251 39.5892054,31.8725637 C39.3723128,31.9965024 39.2638681,32.1824076 39.2638681,32.4302849 Z M31.2698651,31.2218891 L31.8275862,31.7796102 C31.8275862,31.7176409 31.8430783,31.6711646 31.874063,31.6401799 C31.9050476,31.6091952 31.9205397,31.562719 31.9205397,31.5007496 L31.8275862,31.3148426 L31.8275862,31.2218891 C31.8275862,31.1599197 31.7656178,31.0824592 31.6416792,30.9895052 C31.5177405,30.8965513 31.3938037,30.8190908 31.2698651,30.7571214 L31.2698651,31.2218891 Z M32.7571214,31.2218891 L33.1289355,30.7571214 L32.7571214,30.7571214 L32.7571214,31.2218891 Z M31.2698651,28.898051 L32.4782609,28.898051 C32.4782609,28.526235 32.3853083,28.2009009 32.1994003,27.922039 C32.0134923,27.643177 31.7036503,27.5037481 31.2698651,27.5037481 L31.2698651,28.898051 Z M67.8935532,23.5997001 C67.8935532,24.4672707 68.2653636,24.9940021 69.0089955,25.17991 C69.7526274,25.365818 70.465264,25.4587706 71.1469265,25.4587706 C71.1469265,24.4052921 70.8835609,23.8320844 70.3568216,23.7391304 C69.8300823,23.6461764 69.0090011,23.5997001 67.8935532,23.5997001 Z" id="Mora"></path>
        </g>
    </g>
</svg>
